<svg width="38" height="25" viewBox="0 0 38 25" fill="none" xmlns="http://www.w3.org/2000/svg">
<path d="M8.3125 11.1111L29.6875 11.1111C30.3525 11.1111 30.875 11.7222 30.875 12.5C30.875 13.2778 30.3525 13.8889 29.6875 13.8889L8.3125 13.8889C7.6475 13.8889 7.125 13.2778 7.125 12.5C7.125 11.7222 7.6475 11.1111 8.3125 11.1111Z" fill="#FB8500"/>
<path d="M14.25 1.38888C14.4057 1.38666 14.5602 1.42258 14.7033 1.49434C14.8465 1.5661 14.9752 1.67211 15.0812 1.80555C15.5562 2.3611 15.5562 3.22221 15.0812 3.77777L7.6 12.5278L15.0812 21.2778C15.5562 21.8333 15.5562 22.6944 15.0812 23.25C14.6062 23.8055 13.87 23.8055 13.395 23.25L5.0825 13.5278C4.6075 12.9722 4.6075 12.1111 5.0825 11.5555L13.395 1.83332C13.6325 1.55555 13.9412 1.41666 14.2262 1.41666L14.25 1.38888Z" fill="#FB8500"/>
</svg>
