<svg width="6" height="10" viewBox="0 0 6 10" fill="none" xmlns="http://www.w3.org/2000/svg">
<path d="M0.255095 2.786C0.253727 2.81829 0.258978 2.85053 0.270527 2.88072C0.282076 2.91091 0.299678 2.93841 0.322251 2.96155C0.344824 2.98468 0.371891 3.00296 0.401787 3.01524C0.431684 3.02753 0.463777 3.03357 0.496095 3.033H1.3211C1.4591 3.033 1.5691 2.92 1.5871 2.783C1.6771 2.127 2.1271 1.649 2.9291 1.649C3.6151 1.649 4.2431 1.992 4.2431 2.817C4.2431 3.452 3.8691 3.744 3.2781 4.188C2.6051 4.677 2.0721 5.248 2.1101 6.175L2.1131 6.392C2.11415 6.45761 2.14095 6.52017 2.18772 6.5662C2.23449 6.61222 2.29748 6.63801 2.3631 6.638H3.1741C3.2404 6.638 3.30399 6.61166 3.35087 6.56478C3.39776 6.51789 3.4241 6.4543 3.4241 6.388V6.283C3.4241 5.565 3.6971 5.356 4.4341 4.797C5.0431 4.334 5.6781 3.82 5.6781 2.741C5.6781 1.23 4.4021 0.5 3.0051 0.5C1.7381 0.5 0.350095 1.09 0.255095 2.786ZM1.8121 8.549C1.8121 9.082 2.2371 9.476 2.8221 9.476C3.4311 9.476 3.8501 9.082 3.8501 8.549C3.8501 7.997 3.4301 7.609 2.8211 7.609C2.2371 7.609 1.8121 7.997 1.8121 8.549Z" fill="black"/>
</svg>
