<svg width="110" height="110" viewBox="0 0 110 110" fill="none" xmlns="http://www.w3.org/2000/svg">
<path d="M110 54.945C110 24.6125 85.36 0 55 0C24.64 0 0 24.6125 0 54.945C0 71.6513 7.59 86.7075 19.47 96.8138C19.58 96.9238 19.69 96.9238 19.69 97.0338C20.68 97.8037 21.67 98.5737 22.77 99.3438C23.32 99.6738 23.76 100.107 24.31 100.547C33.3992 106.709 44.1286 110.002 55.11 110C66.0914 110.002 76.8208 106.709 85.91 100.547C86.46 100.217 86.9 99.7838 87.45 99.4469C88.44 98.6838 89.54 97.9137 90.53 97.1438C90.64 97.0338 90.75 97.0337 90.75 96.9237C102.41 86.7006 110 71.6513 110 54.945ZM55 103.077C44.66 103.077 35.2 99.7769 27.39 94.2837C27.5 93.4037 27.72 92.5306 27.94 91.6506C28.5954 89.2657 29.5568 86.9757 30.8 84.8375C32.01 82.7475 33.44 80.8775 35.2 79.2275C36.85 77.5775 38.83 76.0444 40.81 74.8344C42.9 73.6244 45.1 72.7444 47.52 72.0844C49.9588 71.427 52.4741 71.0964 55 71.1012C62.4982 71.0481 69.7209 73.9244 75.13 79.1175C77.66 81.6475 79.64 84.6175 81.07 88.0206C81.84 90.0006 82.39 92.0906 82.72 94.2837C74.6018 99.9911 64.9236 103.061 55 103.077ZM38.17 52.2019C37.2008 49.9828 36.7134 47.5833 36.74 45.1619C36.74 42.7487 37.18 40.3288 38.17 38.1287C39.16 35.9287 40.48 33.9556 42.13 32.3056C43.78 30.6556 45.76 29.3425 47.96 28.3525C50.16 27.3625 52.58 26.9225 55 26.9225C57.53 26.9225 59.84 27.3625 62.04 28.3525C64.24 29.3425 66.22 30.6625 67.87 32.3056C69.52 33.9556 70.84 35.9356 71.83 38.1287C72.82 40.3288 73.26 42.7487 73.26 45.1619C73.26 47.6919 72.82 50.0019 71.83 52.195C70.8746 54.3624 69.5327 56.338 67.87 58.025C66.1824 59.6852 64.2069 61.0248 62.04 61.9781C57.4944 63.8462 52.3956 63.8462 47.85 61.9781C45.6831 61.0248 43.7076 59.6852 42.02 58.025C40.355 56.3625 39.0451 54.386 38.17 52.2019ZM89.21 88.6806C89.21 88.4606 89.1 88.3506 89.1 88.1306C88.0181 84.6891 86.4236 81.4304 84.37 78.4644C82.3145 75.4764 79.7885 72.8412 76.89 70.6612C74.6764 68.996 72.277 67.5933 69.74 66.4812C70.8942 65.7198 71.9636 64.8371 72.93 63.8481C74.57 62.2291 76.0102 60.4195 77.22 58.4581C79.6562 54.4556 80.9144 49.8471 80.85 45.1619C80.884 41.6935 80.2103 38.2547 78.87 35.0556C77.5467 31.9731 75.642 29.1744 73.26 26.8125C70.8815 24.4752 68.0823 22.6091 65.01 21.3125C61.8056 19.9746 58.3623 19.3032 54.89 19.3394C51.4172 19.3054 47.9739 19.9791 44.77 21.3194C41.6711 22.6132 38.8651 24.5189 36.52 26.9225C34.1828 29.2984 32.3166 32.0954 31.02 35.1656C29.6797 38.3647 29.006 41.8035 29.04 45.2719C29.04 47.6919 29.37 50.0019 30.03 52.195C30.69 54.505 31.57 56.595 32.78 58.5681C33.88 60.5481 35.42 62.3081 37.07 63.9581C38.06 64.9481 39.16 65.8213 40.37 66.5912C37.8251 67.7329 35.4249 69.173 33.22 70.8813C30.36 73.0813 27.83 75.7144 25.74 78.5744C23.6655 81.5281 22.0693 84.7902 21.01 88.2406C20.9 88.4606 20.9 88.6806 20.9 88.7906C12.21 79.9975 6.82 68.1312 6.82 54.945C6.82 28.4625 28.49 6.81313 55 6.81313C81.51 6.81313 103.18 28.4625 103.18 54.945C103.166 67.5947 98.1428 79.7241 89.21 88.6806Z" fill="black"/>
</svg>
